<svg xmlns="http://www.w3.org/2000/svg" width="22" height="22" viewBox="0 0 22 22" fill="none">
<path d="M4.86543 20.5224C4.40239 20.5224 4.01046 20.362 3.68962 20.0411C3.36879 19.7203 3.20837 19.3284 3.20837 18.8653V6.59615C3.20837 6.13311 3.36879 5.74118 3.68962 5.42034C4.01046 5.09951 4.40239 4.93909 4.86543 4.93909H6.13467V3.7051C6.13467 3.50415 6.20196 3.33639 6.33652 3.20183C6.47107 3.06728 6.63883 3 6.8398 3C7.04074 3 7.2085 3.06728 7.34307 3.20183C7.47762 3.33639 7.54489 3.50415 7.54489 3.7051V4.93909H14.4904V3.68748C14.4904 3.4924 14.5562 3.32904 14.6878 3.19743C14.8194 3.06581 14.9828 3 15.1779 3C15.3729 3 15.5363 3.06581 15.6679 3.19743C15.7995 3.32904 15.8654 3.4924 15.8654 3.68748V4.93909H17.1346C17.5976 4.93909 17.9896 5.09951 18.3104 5.42034C18.6312 5.74118 18.7917 6.13311 18.7917 6.59615V18.8653C18.7917 19.3284 18.6312 19.7203 18.3104 20.0411C17.9896 20.362 17.5976 20.5224 17.1346 20.5224H4.86543ZM4.86543 19.1474H17.1346C17.2051 19.1474 17.2698 19.118 17.3285 19.0593C17.3873 19.0005 17.4167 18.9358 17.4167 18.8653V10.2628H4.58335V18.8653C4.58335 18.9358 4.61273 19.0005 4.67149 19.0593C4.73026 19.118 4.79491 19.1474 4.86543 19.1474ZM4.58335 8.88784H17.4167V6.59615C17.4167 6.52563 17.3873 6.46098 17.3285 6.40221C17.2698 6.34345 17.2051 6.31407 17.1346 6.31407H4.86543C4.79491 6.31407 4.73026 6.34345 4.67149 6.40221C4.61273 6.46098 4.58335 6.52563 4.58335 6.59615V8.88784Z" fill="#9FA6B2"/>
</svg>