<?xml version="1.0" encoding="UTF-8"?>
<!DOCTYPE svg PUBLIC "-//W3C//DTD SVG 1.1//EN" "http://www.w3.org/Graphics/SVG/1.1/DTD/svg11.dtd">
<svg xmlns="http://www.w3.org/2000/svg" version="1.1" width="60px" height="60px" style="shape-rendering:geometricPrecision; text-rendering:geometricPrecision; image-rendering:optimizeQuality; fill-rule:evenodd; clip-rule:evenodd" xmlns:xlink="http://www.w3.org/1999/xlink">
<g><path style="opacity:0.967" fill="#8f05ff" d="M 21.5,-0.5 C 26.8333,-0.5 32.1667,-0.5 37.5,-0.5C 48.5,3.16667 55.8333,10.5 59.5,21.5C 59.5,26.8333 59.5,32.1667 59.5,37.5C 55.8333,48.5 48.5,55.8333 37.5,59.5C 32.1667,59.5 26.8333,59.5 21.5,59.5C 10.5,55.8333 3.16667,48.5 -0.5,37.5C -0.5,32.1667 -0.5,26.8333 -0.5,21.5C 1.4539,16.935 3.9539,12.6017 7,8.5C 11.3435,4.58492 16.1768,1.58492 21.5,-0.5 Z"/></g>
<g><path style="opacity:1" fill="#fbf5ff" d="M 25.5,16.5 C 27.9484,16.0101 29.615,16.8434 30.5,19C 27.914,20.652 25.414,22.4853 23,24.5C 20.3216,31.4746 22.655,35.808 30,37.5C 30.9149,39.92 30.0815,41.2534 27.5,41.5C 17.2328,37.9676 14.3995,31.3009 19,21.5C 20.9651,19.4497 23.1318,17.783 25.5,16.5 Z"/></g>
<g><path style="opacity:1" fill="#fdf9ff" d="M 35.5,16.5 C 39.2635,17.385 40.2635,19.5516 38.5,23C 33.1483,23.1754 32.1483,21.0087 35.5,16.5 Z"/></g>
<g><path style="opacity:1" fill="#f7ebff" d="M 34.5,31.5 C 37.5879,31.367 39.5879,32.7003 40.5,35.5C 39.9258,38.3208 38.5924,40.6541 36.5,42.5C 35.7926,39.6364 34.4592,37.1364 32.5,35C 32.9783,33.6974 33.645,32.5307 34.5,31.5 Z"/></g>
</svg>
