<svg width="21" height="17" viewBox="0 0 21 17" fill="none" xmlns="http://www.w3.org/2000/svg">
<g clip-path="url(#clip0_569_2452)">
<path d="M16.5846 14.5H3.51795C3.24154 14.5 3.01538 14.725 3.01538 15V16C3.01538 16.275 3.24154 16.5 3.51795 16.5H16.5846C16.861 16.5 17.0872 16.275 17.0872 16V15C17.0872 14.725 16.861 14.5 16.5846 14.5ZM18.5949 4.5C17.7625 4.5 17.0872 5.17188 17.0872 6C17.0872 6.22188 17.1374 6.42812 17.2254 6.61875L14.9513 7.975C14.4676 8.2625 13.8425 8.1 13.5629 7.6125L11.003 3.15625C11.3391 2.88125 11.559 2.46875 11.559 2C11.559 1.17188 10.8837 0.5 10.0513 0.5C9.21891 0.5 8.54359 1.17188 8.54359 2C8.54359 2.46875 8.76346 2.88125 9.09955 3.15625L6.53961 7.6125C6.26006 8.1 5.63186 8.2625 5.15128 7.975L2.88032 6.61875C2.96513 6.43125 3.01853 6.22188 3.01853 6C3.01853 5.17188 2.3432 4.5 1.51083 4.5C0.678461 4.5 0 5.17188 0 6C0 6.82812 0.67532 7.5 1.50769 7.5C1.58936 7.5 1.67103 7.4875 1.74955 7.475L4.02051 13.5H16.0821L18.353 7.475C18.4315 7.4875 18.5132 7.5 18.5949 7.5C19.4272 7.5 20.1026 6.82812 20.1026 6C20.1026 5.17188 19.4272 4.5 18.5949 4.5Z" fill="#FDD446"/>
</g>
<defs>
<clipPath id="clip0_569_2452">
<rect width="20.1026" height="16" fill="white" transform="translate(0 0.5)"/>
</clipPath>
</defs>
</svg>
