<svg width="17" height="18" viewBox="0 0 17 18" fill="none" xmlns="http://www.w3.org/2000/svg">
<g id="8665305_envelope_email_icon" clip-path="url(#clip0_331_6869)">
<path id="Vector" d="M8.18182 12.0708C7.65352 12.0708 7.12521 11.8975 6.67457 11.5463L0 6.35627V13.6048C0 14.4518 0.686825 15.1389 1.53409 15.1389H14.8295C15.6768 15.1389 16.3636 14.4521 16.3636 13.6048V6.35627L9.69034 11.5498C9.2397 11.8982 8.70916 12.0708 8.18182 12.0708ZM0.520632 5.46458L7.30259 10.7412C7.82003 11.1439 8.54489 11.1439 9.06232 10.7412L15.8443 5.46458C16.1431 5.2089 16.3636 4.81578 16.3636 4.4003C16.3636 3.55304 15.6765 2.86621 14.8295 2.86621H1.53409C0.686825 2.86621 0 3.55304 0 4.4003C0 4.81578 0.192081 5.2089 0.520632 5.46458Z" fill="white"/>
</g>
<defs>
<clipPath id="clip0_331_6869">
<rect width="16.3636" height="16.3636" fill="white" transform="translate(0 0.820312)"/>
</clipPath>
</defs>
</svg>
