<svg width="19" height="18" viewBox="0 0 19 18" fill="none" xmlns="http://www.w3.org/2000/svg">
<g id="4747497_social media_facebook_icon" clip-path="url(#clip0_331_6867)">
<path id="Vector" d="M15.8301 0.87207H3.6579C3.02551 0.87207 2.41901 1.12329 1.97183 1.57046C1.52466 2.01765 1.27344 2.62414 1.27344 3.25654V15.4288C1.27344 16.0612 1.52466 16.6677 1.97183 17.1148C2.41901 17.562 3.02551 17.8132 3.6579 17.8132H9.19767V11.6297H7.10332V9.21772H9.19767V7.44101C9.19767 6.43407 9.47614 5.6516 10.0331 5.09572C10.59 4.53878 11.345 4.25925 12.2989 4.25925C13.254 4.25925 13.8724 4.29631 14.1551 4.36619V6.51348H12.8824C12.4228 6.51348 12.1094 6.6109 11.9411 6.80572C11.7738 6.99948 11.6901 7.29172 11.6901 7.68031V9.21772H14.0756L13.758 11.6297H11.6901V17.8132H15.8301C16.4626 17.8132 17.069 17.562 17.5162 17.1148C17.9634 16.6677 18.2146 16.0612 18.2146 15.4288V3.25654C18.2146 2.62414 17.9634 2.01765 17.5162 1.57046C17.069 1.12329 16.4626 0.87207 15.8301 0.87207Z" fill="white"/>
</g>
<defs>
<clipPath id="clip0_331_6867">
<rect width="18" height="18" fill="white" transform="translate(0.820312)"/>
</clipPath>
</defs>
</svg>
