<svg width="24" height="28" viewBox="0 0 24 28" fill="none" xmlns="http://www.w3.org/2000/svg">
<g id="&#225;&#132;&#140;&#225;&#133;&#161;&#225;&#132;&#137;&#225;&#133;&#161;&#225;&#134;&#171; 1 1" clip-path="url(#clip0_499_4291)">
<g id="Objects">
<g id="Group">
<path id="Vector" d="M23.6245 2.07781C23.6136 2.05605 23.5882 2.04155 23.5627 2.0488C23.341 2.14308 23.1193 2.22285 22.8902 2.30625C22.2614 2.53831 21.607 2.6906 20.9527 2.84289C20.2038 3.00969 19.4405 3.12935 18.6952 3.31428C18.0518 3.47019 17.412 3.65875 16.794 3.90531C16.3287 4.08661 15.8707 4.28242 15.4417 4.53261C14.9328 4.81181 14.522 5.22881 14.1222 5.64217C13.755 6.02653 13.3842 6.41088 13.0607 6.83512C12.8789 7.07444 12.7263 7.33551 12.5809 7.59659C12.8099 6.7336 13.1298 5.86336 13.715 5.17442C13.7587 5.12003 13.7078 5.05476 13.646 5.08377C13.4969 5.15629 13.3588 5.25056 13.217 5.33759C12.1337 6.07004 11.1668 6.98017 10.3343 7.98457C9.92718 8.48133 9.53458 8.98897 9.21104 9.54375C8.83662 10.1928 8.55308 10.8926 8.34951 11.6142C8.32769 11.1863 8.36405 10.7585 8.42221 10.3342C8.43312 10.2581 8.44402 10.1856 8.44766 10.1094C8.44766 10.0586 8.4622 9.98612 8.4113 9.95711C8.37495 9.93898 8.3386 9.95711 8.31315 9.98612C8.28044 10.0188 8.25499 10.055 8.22591 10.0913C8.16775 10.1674 8.10958 10.2472 8.05506 10.327C7.8733 10.5844 7.70971 10.8564 7.56794 11.1392C7.21896 11.8535 6.89907 12.5751 6.57554 13.3003C6.24837 14.0255 5.94665 14.7652 5.63039 15.494C5.32867 16.183 4.99787 16.861 4.65616 17.5318C4.47077 17.8908 4.28174 18.2498 4.05999 18.5906C3.96547 18.7357 3.86732 18.8771 3.76554 19.0149C3.78008 18.9859 3.79462 18.9605 3.80916 18.9315C4.10725 18.3477 4.31082 17.724 4.49621 17.0967C4.64889 16.6942 4.80157 16.2917 4.97242 15.9001C5.17236 15.4541 5.35048 15.0009 5.52133 14.544C5.86304 13.681 6.27745 12.8543 6.75002 12.0529C7.05538 11.5344 7.38255 11.0268 7.68063 10.501C7.96054 10.0079 8.18229 9.48573 8.43675 8.98172C8.62578 8.60461 8.81844 8.22751 8.98203 7.83953C9.02928 7.73075 9.07654 7.61834 9.12016 7.50594C9.13834 7.45155 9.16015 7.39353 9.17106 7.33551C9.17106 7.31376 9.17469 7.28838 9.16015 7.26662C9.12744 7.21586 9.062 7.23399 9.02201 7.26662C8.90569 7.35364 8.79663 7.44429 8.68394 7.53857C8.32042 7.84678 7.94237 8.13686 7.5534 8.41244C8.38586 7.40441 9.27284 6.37462 9.67271 5.10552C9.70179 4.99674 9.78177 4.72479 9.70179 4.63414C9.64727 4.587 9.58547 4.65227 9.55275 4.69216C9.21468 5.11277 8.85843 5.51889 8.4622 5.88511C8.61487 5.6458 8.76028 5.39923 8.89115 5.14541C9.10926 4.71029 9.32373 4.27154 9.50186 3.81829C9.7127 3.26351 9.87265 2.69423 10.0399 2.12857C10.2107 1.51215 10.3634 0.888479 10.5488 0.275684C10.567 0.217668 10.5851 0.159652 10.596 0.0980101C10.596 0.0798801 10.6033 0.0581241 10.596 0.0399941C10.5851 0.00736005 10.5452 -0.014396 10.5124 -0.00351796C10.4834 0.00373404 10.4543 0.0218641 10.4288 0.0436201C10.058 0.391716 9.72724 0.779699 9.37099 1.13867C9.10926 1.407 8.84389 1.67895 8.59306 1.95815C8.08777 2.53106 7.63701 3.15473 7.28076 3.82917C6.95723 4.44196 6.72094 5.10552 6.57554 5.78358C6.37924 6.66833 6.3138 7.57483 6.19021 8.47045C6.04843 8.08247 5.96483 7.67273 5.94665 7.25574C5.93938 7.11795 5.93211 6.97291 5.92484 6.82425C5.92484 6.75535 5.92484 6.60669 5.81942 6.63932C5.7867 6.65745 5.76853 6.69371 5.75035 6.72997C5.71763 6.79524 5.68855 6.86413 5.65947 6.93303C5.56859 7.14334 5.4668 7.34639 5.37229 7.55307C5.10329 8.13323 4.87064 8.73515 4.75067 9.36245C4.64525 9.87734 4.59073 10.4031 4.59073 10.9253C4.59073 11.6577 4.70342 12.3793 4.69978 13.1154C4.49985 12.7926 4.29628 12.4663 4.21267 12.0892C4.16904 11.9115 4.13633 11.7339 4.10725 11.5562C4.09998 11.5054 4.08907 11.451 4.0818 11.4003C4.07453 11.364 4.07453 11.3169 4.04545 11.2915C3.98002 11.2407 3.93639 11.3277 3.92185 11.3821C3.79826 11.7737 3.73646 12.1871 3.72192 12.6005C3.70374 13.0175 3.74373 13.4345 3.78372 13.8514C3.82007 14.2285 3.86005 14.6057 3.8855 14.9864C3.86732 15.1242 3.86005 15.262 3.84915 15.3997C3.80553 16.0778 3.72919 16.7559 3.59832 17.4231C3.51108 17.9597 3.39839 18.4891 3.20936 19.004C3.1003 19.3702 2.95853 19.7256 2.7804 20.0628C2.75132 20.1099 2.72588 20.1607 2.70043 20.2078C2.34782 20.8351 2.02429 21.4769 1.66804 22.1006C1.45356 22.4668 1.24636 22.8403 1.05369 23.221C0.91192 23.4676 0.781054 23.7178 0.668363 23.9752C0.570213 24.1928 0.475698 24.414 0.388454 24.6352C0.355737 24.7295 0.261223 24.918 0.312115 25.0123C0.388454 25.0812 0.450252 24.9905 0.497509 24.8926C0.508415 24.8817 0.519321 24.8709 0.526591 24.86C0.555672 24.8201 0.581119 24.7802 0.60293 24.7367C0.661093 24.6388 0.719256 24.5445 0.773783 24.4503C1.01371 24.0333 1.24636 23.6126 1.48264 23.192C1.83526 22.5393 2.22059 21.9048 2.60955 21.2702C2.67498 21.1651 2.73678 21.0599 2.80222 20.9512C2.88219 20.8351 2.96216 20.7227 3.04577 20.6067C3.19482 20.4036 3.35476 20.2078 3.52925 20.0265C3.74373 19.7908 4.01273 19.5624 4.26356 19.363C4.62708 19.0693 4.95424 18.7357 5.27414 18.3985C6.01935 17.5899 6.72094 16.7414 7.44798 15.9146C7.93146 15.3345 8.45129 14.7761 9.00747 14.2684C9.41825 13.924 9.84357 13.594 10.2762 13.2785C10.9668 12.7854 11.6939 12.3466 12.3809 11.8463C13.1916 11.2552 13.984 10.6388 14.7111 9.94624C14.7329 9.92085 14.7583 9.89185 14.7438 9.85559C14.7293 9.80845 14.6711 9.8157 14.6311 9.82658C14.4675 9.87009 14.3112 9.93536 14.1513 9.97524C13.9877 10.0115 13.8205 10.0441 13.6569 10.0731C13.2097 10.1602 12.7517 10.1964 12.2973 10.2001C12.5554 10.1022 12.8171 10.0079 13.0789 9.92085C13.7296 9.72505 14.3875 9.55825 15.0237 9.31894C16.1542 8.93095 17.143 8.23476 18.0482 7.46968C18.2699 7.28475 18.4953 7.09982 18.6989 6.89314C18.7352 6.84963 18.7898 6.80974 18.797 6.7481C18.797 6.67558 18.7098 6.67558 18.6553 6.69008C18.1463 6.79886 17.6338 6.90402 17.1176 6.95841C16.7759 6.99104 16.4196 7.01642 16.0779 6.95478C16.4741 6.83512 16.874 6.72997 17.2812 6.64657C17.6592 6.57043 18.0409 6.49791 18.4081 6.3855C18.9788 6.2187 19.4913 5.89236 19.9276 5.4935C20.1893 5.24331 20.4329 4.97499 20.6728 4.70303C20.9272 4.41295 21.1563 4.10112 21.4253 3.82192C21.7779 3.45206 22.1632 3.11485 22.574 2.81389C22.8793 2.57457 23.2065 2.37151 23.5446 2.17934C23.57 2.16483 23.5955 2.15758 23.6209 2.14308C23.6427 2.12857 23.65 2.10319 23.6391 2.07781H23.6245ZM3.75827 19.305C3.75827 19.305 3.75827 19.305 3.751 19.305H3.75463H3.75827ZM4.62708 15.407C4.90699 14.4932 5.17599 13.5759 5.4668 12.6657C5.73944 11.7339 6.01208 10.802 6.29926 9.87734C6.61916 8.78229 6.87362 7.66911 7.21169 6.57768C7.45162 5.80897 7.72062 5.0475 8.02234 4.30055C8.29498 3.62611 8.60033 2.96255 9.01474 2.36064C8.67667 3.16198 8.32769 3.95608 8.03325 4.77193C7.7497 5.48625 7.50978 6.21508 7.30257 6.95478C6.79728 8.59011 6.49193 10.2798 6.00481 11.9188C5.79761 12.644 5.56496 13.3619 5.31413 14.0763C5.136 14.5875 4.92516 15.0988 4.75067 15.6101C4.36171 16.745 4.00183 17.8908 3.55833 19.0076C3.55106 19.0149 3.54379 19.0221 3.53652 19.0294C3.52198 19.0257 3.50744 19.0294 3.49654 19.033C3.57287 18.7937 3.64558 18.5507 3.70738 18.3078C4.00183 17.336 4.32536 16.3751 4.62708 15.407ZM15.5544 6.49428C15.1328 6.78436 14.7111 7.07444 14.3112 7.3899C13.646 7.9193 12.9989 8.46683 12.3555 9.0216C11.9811 9.3552 11.643 9.72867 11.2904 10.0876C10.9414 10.4502 10.5888 10.8056 10.258 11.1827C9.81812 11.6722 9.36736 12.1545 8.94568 12.6621C8.57489 13.0972 8.23681 13.5614 7.90238 14.0255C7.65519 14.3555 7.40436 14.6854 7.17171 15.0263C6.89543 15.4215 6.60825 15.8059 6.33198 16.2011C6.05571 16.6 5.78307 16.9988 5.51406 17.4013C5.34321 17.6551 5.17236 17.9126 4.97242 18.1483C4.73613 18.4275 4.49258 18.7212 4.22357 18.9786C4.12179 19.0693 4.02364 19.1599 3.92549 19.2542C3.92549 19.2542 3.92549 19.2542 3.92185 19.2542C3.87459 19.2433 3.87459 19.1998 3.8855 19.1635C4.07816 18.9496 4.27083 18.7393 4.45986 18.5217C4.68888 18.257 4.89608 17.9742 5.08875 17.6841C6.11387 16.1902 7.1499 14.6999 8.25136 13.2568C8.66213 12.7238 9.08745 12.198 9.54548 11.7048C10.3343 10.8709 11.1486 10.0659 11.9629 9.25367C13.0134 8.20938 14.1331 7.23036 15.3509 6.3855C16.3215 5.73282 17.3539 5.17442 18.419 4.69216C17.4229 5.22518 16.4923 5.87423 15.5544 6.49791V6.49428Z" fill="#5534DA"/>
<path id="Vector_2" d="M16.449 24.8416C16.4199 24.9032 16.3799 24.9576 16.3363 25.0084C15.8782 25.4834 15.2021 25.73 14.5623 25.8569C13.9152 25.991 13.25 25.8677 12.6175 25.7263C13.2464 25.2078 13.9516 24.6023 14.0934 23.7574C14.2315 22.7457 13.2755 22.0894 12.3558 22.0459C9.28039 21.9444 6.5031 23.6087 3.89668 25.0483C2.90791 25.5885 1.80645 26.2811 0.632282 26.0092C0.468699 25.962 0.30148 25.8569 0.250588 25.6828C0.254223 25.6357 0.232412 25.5813 0.185154 25.5595C-0.178364 25.487 0.0797341 25.9983 0.246953 26.0889C1.69012 26.912 3.69674 25.3855 4.97269 24.7255C6.28863 24.0076 7.64819 23.2824 9.08045 22.8146C10.2692 22.4629 11.676 22.0713 12.901 22.4013C13.5263 22.5826 14.0134 23.2353 13.8135 23.8879C13.5626 24.6421 12.9119 25.1752 12.3049 25.6466C11.3488 25.4181 10.3564 25.1679 9.36763 25.3093C8.82235 25.4072 8.19347 25.5994 7.92083 26.1216C7.49551 26.9773 8.56062 27.1441 9.1786 27.126C10.3382 27.0897 11.4433 26.6147 12.3594 25.9149C13.399 26.1868 14.4278 26.2884 15.442 25.8605C15.9001 25.6502 16.4199 25.4181 16.6671 24.9504C16.7434 24.8089 16.518 24.6929 16.4453 24.8343L16.449 24.8416ZM9.14588 26.883C8.81145 26.8576 8.22255 26.9048 8.08077 26.5313C8.05896 26.0599 8.58243 25.7843 8.97503 25.6647C9.98198 25.3601 11.0434 25.6139 12.0395 25.846C11.1998 26.4588 10.1928 26.854 9.14588 26.883Z" fill="#5534DA"/>
</g>
</g>
</g>
<defs>
<clipPath id="clip0_499_4291">
<rect width="23.6287" height="27.1334" fill="white"/>
</clipPath>
</defs>
</svg>
