<svg width="19" height="19" viewBox="0 0 19 19" fill="none" xmlns="http://www.w3.org/2000/svg">
<path d="M11.2256 9.49998L5.5761 3.85046C5.42706 3.70142 5.35446 3.52402 5.3583 3.31826C5.36215 3.11248 5.43859 2.93508 5.58763 2.78606C5.73667 2.63702 5.91407 2.5625 6.11983 2.5625C6.32559 2.5625 6.50299 2.63702 6.65203 2.78606L12.3939 8.53942C12.5294 8.67499 12.6299 8.82691 12.6953 8.99518C12.7607 9.16345 12.7934 9.33172 12.7934 9.49998C12.7934 9.66824 12.7607 9.83651 12.6953 10.0048C12.6299 10.1731 12.5294 10.325 12.3939 10.4605L6.6405 16.2139C6.49146 16.3629 6.31598 16.4355 6.11405 16.4317C5.91214 16.4279 5.73667 16.3514 5.58763 16.2024C5.43859 16.0533 5.36407 15.8759 5.36407 15.6702C5.36407 15.4644 5.43859 15.287 5.58763 15.138L11.2256 9.49998Z" fill="#333236"/>
</svg>
