<svg width="24" height="24" viewBox="0 0 24 24" fill="none" xmlns="http://www.w3.org/2000/svg">
<path d="M9.51928 15.6155C7.8116 15.6155 6.36546 15.0232 5.18086 13.8386C3.99624 12.6539 3.40393 11.2078 3.40393 9.50012C3.40393 7.79243 3.99624 6.34628 5.18086 5.16167C6.36546 3.97707 7.8116 3.38477 9.51928 3.38477C11.227 3.38477 12.6731 3.97707 13.8577 5.16167C15.0423 6.34628 15.6347 7.79243 15.6347 9.50012C15.6347 10.2142 15.5148 10.8963 15.275 11.5463C15.0353 12.1963 14.7154 12.7616 14.3154 13.2424L20.0693 18.9963C20.2077 19.1347 20.2786 19.3088 20.2818 19.5184C20.285 19.728 20.2141 19.9052 20.0693 20.0501C19.9244 20.195 19.7488 20.2674 19.5424 20.2674C19.336 20.2674 19.1603 20.195 19.0155 20.0501L13.2616 14.2962C12.7616 14.7091 12.1866 15.0321 11.5366 15.2655C10.8866 15.4988 10.2141 15.6155 9.51928 15.6155ZM9.51928 14.1155C10.8077 14.1155 11.8991 13.6684 12.7933 12.7742C13.6876 11.8799 14.1347 10.7886 14.1347 9.50012C14.1347 8.21165 13.6876 7.1203 12.7933 6.22607C11.8991 5.33183 10.8077 4.88472 9.51928 4.88472C8.23081 4.88472 7.13946 5.33183 6.24523 6.22607C5.35101 7.1203 4.90391 8.21165 4.90391 9.50012C4.90391 10.7886 5.35101 11.8799 6.24523 12.7742C7.13946 13.6684 8.23081 14.1155 9.51928 14.1155Z" fill="#333236"/>
</svg>
